<svg width="20" height="16" viewBox="0 0 20 16" fill="none" xmlns="http://www.w3.org/2000/svg">
<path fill-rule="evenodd" clip-rule="evenodd" d="M3.00008 1.75C2.30972 1.75 1.75008 2.30964 1.75008 3V13C1.75008 13.6904 2.30972 14.25 3.00008 14.25H17.0001C17.6904 14.25 18.2501 13.6904 18.2501 13V3C18.2501 2.30964 17.6904 1.75 17.0001 1.75H3.00008ZM0.25008 3C0.25008 1.48122 1.4813 0.25 3.00008 0.25H17.0001C18.5189 0.25 19.7501 1.48122 19.7501 3V13C19.7501 14.5188 18.5189 15.75 17.0001 15.75H3.00008C1.4813 15.75 0.25008 14.5188 0.25008 13V3Z" fill="#111827"/>
<path fill-rule="evenodd" clip-rule="evenodd" d="M0.376042 2.58397C0.605806 2.23933 1.07146 2.1462 1.4161 2.37596L10.0001 8.09861L18.5841 2.37596C18.9287 2.1462 19.3944 2.23933 19.6241 2.58397C19.8539 2.92862 19.7608 3.39427 19.4161 3.62404L10.4161 9.62404C10.1642 9.79199 9.83598 9.79199 9.58405 9.62404L0.584055 3.62404C0.239408 3.39427 0.146278 2.92862 0.376042 2.58397Z" fill="#111827"/>
</svg>
